<svg width="30" height="30" viewBox="0 0 30 30" fill="none" xmlns="http://www.w3.org/2000/svg">
<path d="M13.9962 11.6936C13.8891 11.627 13.7646 11.5909 13.6364 11.5909L12.9545 11.5909L12.2727 11.5909C12.1445 11.5909 12.02 11.627 11.9129 11.6936C11.894 11.7497 11.8779 11.8068 11.8646 11.8646C11.834 11.9974 11.8182 12.1342 11.8182 12.2727C11.8182 12.4112 11.834 12.5481 11.8646 12.6809C11.8779 12.7387 11.894 12.7958 11.9129 12.8519C12.02 12.9184 12.1445 12.9545 12.2727 12.9545H12.9545H13.6364C13.7646 12.9545 13.8891 12.9184 13.9962 12.8519C14.0151 12.7958 14.0312 12.7387 14.0445 12.6809C14.0751 12.5481 14.0909 12.4112 14.0909 12.2727C14.0909 12.1342 14.0751 11.9974 14.0445 11.8646C14.0312 11.8068 14.0151 11.7497 13.9962 11.6936Z" fill="white" stroke="#FAFAFA" stroke-width="5"/>
</svg>
