<svg width="14" height="13" viewBox="0 0 14 13" fill="none" xmlns="http://www.w3.org/2000/svg">
<mask id="mask0_3051_1823" style="mask-type:alpha" maskUnits="userSpaceOnUse" x="0" y="0" width="14" height="13">
<path d="M5.55556 0H1.22222C1.03068 0 0.846977 0.076091 0.711534 0.211534C0.576091 0.346977 0.5 0.530677 0.5 0.722222V5.05556C0.5 5.2471 0.576091 5.4308 0.711534 5.56624C0.846977 5.70169 1.03068 5.77778 1.22222 5.77778H5.55556C5.7471 5.77778 5.9308 5.70169 6.06624 5.56624C6.20169 5.4308 6.27778 5.2471 6.27778 5.05556V0.722222C6.27778 0.530677 6.20169 0.346977 6.06624 0.211534C5.9308 0.076091 5.7471 0 5.55556 0V0ZM4.83333 4.33333H1.94444V1.44444H4.83333V4.33333ZM12.7778 0H8.44444C8.2529 0 8.0692 0.076091 7.93376 0.211534C7.79831 0.346977 7.72222 0.530677 7.72222 0.722222V5.05556C7.72222 5.2471 7.79831 5.4308 7.93376 5.56624C8.0692 5.70169 8.2529 5.77778 8.44444 5.77778H12.7778C12.9693 5.77778 13.153 5.70169 13.2885 5.56624C13.4239 5.4308 13.5 5.2471 13.5 5.05556V0.722222C13.5 0.530677 13.4239 0.346977 13.2885 0.211534C13.153 0.076091 12.9693 0 12.7778 0V0ZM12.0556 4.33333H9.16667V1.44444H12.0556V4.33333ZM5.55556 7.22222H1.22222C1.03068 7.22222 0.846977 7.29831 0.711534 7.43376C0.576091 7.5692 0.5 7.7529 0.5 7.94444V12.2778C0.5 12.4693 0.576091 12.653 0.711534 12.7885C0.846977 12.9239 1.03068 13 1.22222 13H5.55556C5.7471 13 5.9308 12.9239 6.06624 12.7885C6.20169 12.653 6.27778 12.4693 6.27778 12.2778V7.94444C6.27778 7.7529 6.20169 7.5692 6.06624 7.43376C5.9308 7.29831 5.7471 7.22222 5.55556 7.22222ZM4.83333 11.5556H1.94444V8.66667H4.83333V11.5556ZM10.6111 7.22222C9.01789 7.22222 7.72222 8.51789 7.72222 10.1111C7.72222 11.7043 9.01789 13 10.6111 13C12.2043 13 13.5 11.7043 13.5 10.1111C13.5 8.51789 12.2043 7.22222 10.6111 7.22222ZM10.6111 11.5556C9.8145 11.5556 9.16667 10.9077 9.16667 10.1111C9.16667 9.3145 9.8145 8.66667 10.6111 8.66667C11.4077 8.66667 12.0556 9.3145 12.0556 10.1111C12.0556 10.9077 11.4077 11.5556 10.6111 11.5556Z" fill="black"/>
</mask>
<g mask="url(#mask0_3051_1823)">
<rect x="-6.71875" y="-7.94434" width="28.1667" height="28.8889" fill="#F8F8F8"/>
</g>
</svg>
