<svg width="9" height="12" viewBox="0 0 9 12" fill="none" xmlns="http://www.w3.org/2000/svg">
<path d="M8.28125 2.5H6.90625V1.40625C6.90625 0.923633 6.59795 0.53125 6.21875 0.53125H2.78125C2.40205 0.53125 2.09375 0.923633 2.09375 1.40625V2.5H0.71875C0.528613 2.5 0.375 2.69551 0.375 2.9375V3.375C0.375 3.43516 0.413672 3.48438 0.460938 3.48438H1.10977L1.3751 10.6348C1.39229 11.101 1.69521 11.4688 2.06152 11.4688H6.93848C7.30586 11.4688 7.60772 11.1023 7.6249 10.6348L7.89023 3.48438H8.53906C8.58633 3.48438 8.625 3.43516 8.625 3.375V2.9375C8.625 2.69551 8.47139 2.5 8.28125 2.5ZM6.13281 2.5H2.86719V1.51562H6.13281V2.5Z" fill="#222222"/>
</svg>
