<svg width="25" height="20" viewBox="0 0 25 20" fill="none" xmlns="http://www.w3.org/2000/svg">
<path d="M0.279419 17.9747C0.279419 18.7107 0.809266 19.3063 1.46148 19.3063H10.9773C11.2908 19.3063 11.5915 19.166 11.8132 18.9163C12.0349 18.6665 12.1594 18.3278 12.1594 17.9747C12.1594 17.6215 12.0349 17.2828 11.8132 17.0331C11.5915 16.7833 11.2908 16.643 10.9773 16.643H1.46148C1.14798 16.643 0.847314 16.7833 0.625636 17.0331C0.403957 17.2828 0.279419 17.6215 0.279419 17.9747Z" fill="black"/>
<path d="M0.279419 9.93806C0.279419 10.6741 0.809264 11.2697 1.46147 11.2697H22.8573C23.1708 11.2697 23.4714 11.1294 23.6931 10.8797C23.9148 10.6299 24.0393 10.2912 24.0393 9.93806C24.0393 9.58489 23.9148 9.24619 23.6931 8.99646C23.4714 8.74674 23.1708 8.60644 22.8573 8.60644H1.46147C1.14797 8.60644 0.847313 8.74674 0.625635 8.99646C0.403957 9.24619 0.279419 9.58489 0.279419 9.93806Z" fill="black"/>
<path d="M1.46148 3.23312C1.14797 3.23312 0.847314 3.09283 0.625635 2.8431C0.403957 2.59337 0.279419 2.25467 0.279419 1.9015C0.279419 1.54833 0.403957 1.20963 0.625635 0.959904C0.847314 0.710176 1.14797 0.56988 1.46148 0.56988H15.7293C16.0428 0.56988 16.3435 0.710176 16.5652 0.959904C16.7868 1.20963 16.9114 1.54833 16.9114 1.9015C16.9114 2.25467 16.7868 2.59337 16.5652 2.8431C16.3435 3.09283 16.0428 3.23312 15.7293 3.23312H1.46148Z" fill="black"/>
</svg>
