<svg version="1.2" xmlns="http://www.w3.org/2000/svg" viewBox="0 0 281 351" width="281" height="351">
	<title>noun-promotion-2522198-svg</title>
	<style>
		.s0 { fill: #ffffff } 
	</style>
	<g id="Layer">
		<path id="Layer" class="s0" d="m97.2 119.1c-10.2 0-18.4-8.2-18.4-18.3 0-10.2 8.2-18.4 18.4-18.4 10.1 0 18.3 8.2 18.3 18.4 0 10.1-8.2 18.3-18.3 18.3z"/>
		<path id="Layer" class="s0" d="m185.3 207.3c-10.2 0-18.4-8.2-18.4-18.4 0-10.1 8.2-18.4 18.4-18.4 10.1 0 18.3 8.3 18.3 18.4 0 10.2-8.2 18.4-18.3 18.4z"/>
		<path id="Layer" class="s0" d="m89.6 206.2c-4.5-0.1-8.6-2.8-10.3-7-1.7-4.1-0.8-8.9 2.4-12.1l101.7-101.9c4.4-4.4 11.5-4.4 15.8 0 4.4 4.4 4.4 11.5 0 15.9l-101.8 101.8c-2 2.1-4.9 3.2-7.8 3.3z"/>
		<path id="Layer" fill-rule="evenodd" class="s0" d="m278.8 312.9c-2.3 3.7-6.5 5.8-10.8 5.3l-28.8-3.3-8.1 28c-1.2 4.2-4.7 7.3-9 8h-1.7c-3.8 0-7.3-1.9-9.3-5l-46.3-69.3c-6 7.4-14.9 11.8-24.4 11.9-9.5 0.1-18.6-4.1-24.7-11.3l-45.9 68.7c-2.1 3.1-5.6 5-9.3 5h-1.8c-4.3-0.7-7.8-3.8-9-8l-8-28-28.8 3.3c-4.4 0.5-8.6-1.6-10.9-5.3-2.2-3.8-2.1-8.5 0.3-12.1l40.3-60.3c-0.9-5.7-0.3-11.5 1.9-16.8 1.1-3 0.7-6.4-1.2-9-1.9-2.6-4.9-4-8.1-3.8-9.5 0.5-18.7-3.1-25.2-10-6.4-6.9-9.5-16.3-8.3-25.7 1.2-9.4 6.5-17.7 14.4-22.8 2.8-1.7 4.4-4.7 4.4-7.9 0-3.2-1.6-6.2-4.4-8-7.9-5.1-13.2-13.4-14.4-22.8-1.1-9.4 1.9-18.8 8.4-25.7 6.4-6.9 15.6-10.5 25.1-10 3.1 0.3 6.2-1.2 8.1-3.8 1.9-2.6 2.3-5.9 1.2-8.9-3.5-8.8-2.9-18.7 1.7-27 4.5-8.3 12.5-14.1 21.8-15.9 9.3-1.8 18.9 0.7 26.2 6.7 2.5 2 5.8 2.6 8.9 1.7 3-1 5.3-3.5 6.2-6.6 1.7-6.8 5.6-12.9 11.2-17.2 5.6-4.3 12.4-6.7 19.5-6.6 7-0.1 13.9 2.2 19.4 6.5 5.6 4.2 9.6 10.2 11.3 17 0.9 3.1 3.2 5.6 6.2 6.6 3.1 1 6.4 0.3 8.9-1.7 7.3-6 16.9-8.5 26.2-6.7 9.3 1.8 17.3 7.6 21.8 15.9 4.6 8.3 5.2 18.2 1.7 27-1.1 3-0.7 6.3 1.2 8.9 1.9 2.6 4.9 4.1 8.1 3.9 9.5-0.6 18.6 3.1 25.1 10 6.5 6.9 9.5 16.3 8.4 25.6-1.2 9.4-6.5 17.8-14.4 22.9-2.8 1.7-4.4 4.7-4.4 7.9 0 3.2 1.6 6.2 4.4 7.9 7.9 5.1 13.2 13.5 14.4 22.8 1.2 9.4-1.9 18.8-8.4 25.7-6.4 6.9-15.6 10.6-25.1 10-3.2-0.2-6.2 1.3-8.1 3.9-1.9 2.5-2.3 5.9-1.2 8.9 2 5 2.7 10.5 2 15.8l41 61.6c2.5 3.6 2.6 8.3 0.3 12.1zm-163.1-35.7q0 0 0 0zm-13.9-19.4c-2.7-0.5-5.5 0.2-7.6 2-5.4 4.5-12.1 7.1-19 7.3-7 0.3-13.9-1.8-19.5-5.9l-21.4 31.9 14.3-1.6c5.5-0.6 10.5 2.8 12 8.1l4 13.8zm68.5-20.8c10.3-3.3 21.7-1 30 6 3.2 2.8 8 2.9 11.4 0.3 3.6-2.5 5-7.2 3.2-11.2-3.9-10.1-2.5-21.5 3.9-30.3 6.4-8.8 16.8-13.7 27.7-13 4.4 0.5 8.7-2.2 10.1-6.5 1.3-4.3-0.5-8.9-4.5-11.1-9.2-5.8-14.8-15.9-14.8-26.8 0-10.8 5.6-20.9 14.8-26.8 3.6-2.2 5.2-6.7 3.9-10.8-1.3-4-5.3-6.7-9.5-6.4-10.8 0.7-21.2-4.2-27.7-12.9-6.4-8.7-7.9-20.1-4-30.2 1.6-4 0.3-8.5-3.2-11.1-3.5-2.5-8.2-2.3-11.5 0.4-8.4 6.9-19.8 9.1-30.1 5.7-10.3-3.5-18.2-11.9-20.9-22.5-0.9-4.2-4.7-7.2-9-7-4.3-0.1-8.1 2.6-9.3 6.7-2.6 10.6-10.5 19.1-20.8 22.5-10.4 3.4-21.7 1.3-30.1-5.7-3.3-2.7-8.1-2.9-11.6-0.3-3.4 2.5-4.7 7.1-3.1 11 3.9 10.1 2.5 21.6-3.9 30.3-6.4 8.8-16.8 13.7-27.6 13.1-4.4-0.4-8.4 2.4-9.5 6.7-1.4 4.1 0.2 8.6 3.9 10.8 9.1 5.8 14.7 16 14.7 26.8 0 10.9-5.6 21-14.7 26.8-3.7 2.3-5.3 6.7-4 10.8 1.4 4.1 5.3 6.7 9.6 6.5 10.6-0.6 20.9 4.2 27.3 12.7 6.4 8.6 8 19.8 4.4 29.9-1.8 4-0.4 8.7 3.2 11.2 3.4 2.6 8.2 2.5 11.4-0.4 8.4-6.9 19.8-9 30.1-5.6 10.4 3.4 18.2 11.9 20.9 22.4 1 4.2 4.8 7.1 9.1 7.1 4.3 0 8-2.9 9-7.1 2.8-10.5 10.8-18.8 21.2-22zm76.2 56.1l-21.6-32.2c-5.7 4.3-12.6 6.4-19.6 6.2-7.1-0.2-13.9-2.8-19.3-7.3-1.9-1.6-4.3-2.3-6.7-2.1l37 55.7 4-13.9c1.5-5.2 6.6-8.7 12.1-8h-0.1z"/>
	</g>
</svg>